<mxfile host="app.diagrams.net" agent="Mozilla/5.0 (Windows NT 10.0; Win64; x64; rv:138.0) Gecko/20100101 Firefox/138.0" version="27.0.9">
  <diagram name="Página-1" id="WyMCP_4AsEpPa9yK_h4s">
    <mxGraphModel dx="872" dy="475" grid="1" gridSize="10" guides="1" tooltips="1" connect="1" arrows="1" fold="1" page="1" pageScale="1" pageWidth="1169" pageHeight="827" math="0" shadow="1">
      <root>
        <mxCell id="0" />
        <mxCell id="1" parent="0" />
        <mxCell id="n2I34oucoNKnLQGjex-b-9" style="edgeStyle=orthogonalEdgeStyle;rounded=0;orthogonalLoop=1;jettySize=auto;html=1;exitX=1;exitY=0.3333333333333333;exitDx=0;exitDy=0;exitPerimeter=0;entryX=0;entryY=0.75;entryDx=0;entryDy=0;" parent="1" source="n2I34oucoNKnLQGjex-b-4" target="n2I34oucoNKnLQGjex-b-6" edge="1">
          <mxGeometry relative="1" as="geometry" />
        </mxCell>
        <mxCell id="n2I34oucoNKnLQGjex-b-10" style="edgeStyle=orthogonalEdgeStyle;rounded=0;orthogonalLoop=1;jettySize=auto;html=1;exitX=1;exitY=0.3333333333333333;exitDx=0;exitDy=0;exitPerimeter=0;" parent="1" source="n2I34oucoNKnLQGjex-b-4" edge="1">
          <mxGeometry relative="1" as="geometry">
            <mxPoint x="240" y="79.57142857142867" as="targetPoint" />
          </mxGeometry>
        </mxCell>
        <mxCell id="n2I34oucoNKnLQGjex-b-4" value="Visitante" style="shape=umlActor;verticalLabelPosition=bottom;verticalAlign=top;html=1;outlineConnect=0;" parent="1" vertex="1">
          <mxGeometry x="80" y="60" width="30" height="60" as="geometry" />
        </mxCell>
        <mxCell id="n2I34oucoNKnLQGjex-b-6" value="Pesquisar produto" style="text;html=1;align=center;verticalAlign=middle;whiteSpace=wrap;rounded=0;" parent="1" vertex="1">
          <mxGeometry x="250" y="130" width="60" height="30" as="geometry" />
        </mxCell>
        <mxCell id="n2I34oucoNKnLQGjex-b-11" value="Realizar Login" style="text;html=1;align=center;verticalAlign=middle;whiteSpace=wrap;rounded=0;" parent="1" vertex="1">
          <mxGeometry x="240" y="60" width="60" height="40" as="geometry" />
        </mxCell>
        <mxCell id="n2I34oucoNKnLQGjex-b-22" style="edgeStyle=orthogonalEdgeStyle;rounded=0;orthogonalLoop=1;jettySize=auto;html=1;exitX=0.5;exitY=0.5;exitDx=0;exitDy=0;exitPerimeter=0;entryX=0;entryY=0.25;entryDx=0;entryDy=0;" parent="1" source="n2I34oucoNKnLQGjex-b-13" target="n2I34oucoNKnLQGjex-b-21" edge="1">
          <mxGeometry relative="1" as="geometry" />
        </mxCell>
        <mxCell id="n2I34oucoNKnLQGjex-b-13" value="Comprador logado" style="shape=umlActor;verticalLabelPosition=bottom;verticalAlign=top;html=1;outlineConnect=0;" parent="1" vertex="1">
          <mxGeometry x="140" y="180" width="30" height="60" as="geometry" />
        </mxCell>
        <mxCell id="n2I34oucoNKnLQGjex-b-14" value="Comprador ouro " style="shape=umlActor;verticalLabelPosition=bottom;verticalAlign=top;html=1;outlineConnect=0;" parent="1" vertex="1">
          <mxGeometry x="140" y="330" width="30" height="60" as="geometry" />
        </mxCell>
        <mxCell id="n2I34oucoNKnLQGjex-b-25" style="edgeStyle=orthogonalEdgeStyle;rounded=0;orthogonalLoop=1;jettySize=auto;html=1;exitX=1;exitY=0.3333333333333333;exitDx=0;exitDy=0;exitPerimeter=0;entryX=0;entryY=0.5;entryDx=0;entryDy=0;" parent="1" source="n2I34oucoNKnLQGjex-b-15" target="n2I34oucoNKnLQGjex-b-23" edge="1">
          <mxGeometry relative="1" as="geometry">
            <Array as="points">
              <mxPoint x="230" y="450" />
              <mxPoint x="230" y="385" />
            </Array>
          </mxGeometry>
        </mxCell>
        <mxCell id="n2I34oucoNKnLQGjex-b-27" style="edgeStyle=orthogonalEdgeStyle;rounded=0;orthogonalLoop=1;jettySize=auto;html=1;exitX=1;exitY=0.3333333333333333;exitDx=0;exitDy=0;exitPerimeter=0;entryX=0;entryY=0.5;entryDx=0;entryDy=0;" parent="1" source="n2I34oucoNKnLQGjex-b-15" target="n2I34oucoNKnLQGjex-b-26" edge="1">
          <mxGeometry relative="1" as="geometry" />
        </mxCell>
        <mxCell id="n2I34oucoNKnLQGjex-b-15" value="Vendedor logado" style="shape=umlActor;verticalLabelPosition=bottom;verticalAlign=top;html=1;outlineConnect=0;" parent="1" vertex="1">
          <mxGeometry x="80" y="430" width="30" height="60" as="geometry" />
        </mxCell>
        <mxCell id="n2I34oucoNKnLQGjex-b-16" value="&lt;div&gt;Vendedor ouro&lt;/div&gt;" style="shape=umlActor;verticalLabelPosition=bottom;verticalAlign=top;html=1;outlineConnect=0;" parent="1" vertex="1">
          <mxGeometry x="80" y="560" width="30" height="60" as="geometry" />
        </mxCell>
        <mxCell id="n2I34oucoNKnLQGjex-b-17" value="" style="endArrow=classic;html=1;rounded=0;shadow=0;" parent="1" edge="1">
          <mxGeometry width="50" height="50" relative="1" as="geometry">
            <mxPoint x="154.29" y="330" as="sourcePoint" />
            <mxPoint x="154.29" y="270" as="targetPoint" />
            <Array as="points" />
          </mxGeometry>
        </mxCell>
        <mxCell id="n2I34oucoNKnLQGjex-b-18" value="" style="endArrow=classic;html=1;rounded=0;" parent="1" edge="1">
          <mxGeometry width="50" height="50" relative="1" as="geometry">
            <mxPoint x="94.29000000000002" y="430" as="sourcePoint" />
            <mxPoint x="94" y="140" as="targetPoint" />
          </mxGeometry>
        </mxCell>
        <mxCell id="n2I34oucoNKnLQGjex-b-19" value="" style="endArrow=classic;html=1;rounded=0;" parent="1" edge="1">
          <mxGeometry width="50" height="50" relative="1" as="geometry">
            <mxPoint x="94.29000000000002" y="560" as="sourcePoint" />
            <mxPoint x="94" y="520" as="targetPoint" />
          </mxGeometry>
        </mxCell>
        <mxCell id="n2I34oucoNKnLQGjex-b-20" value="" style="endArrow=classic;html=1;rounded=0;shadow=1;" parent="1" edge="1">
          <mxGeometry width="50" height="50" relative="1" as="geometry">
            <mxPoint x="150" y="180" as="sourcePoint" />
            <mxPoint x="110" y="140" as="targetPoint" />
          </mxGeometry>
        </mxCell>
        <mxCell id="n2I34oucoNKnLQGjex-b-29" style="edgeStyle=orthogonalEdgeStyle;rounded=0;orthogonalLoop=1;jettySize=auto;html=1;exitX=1;exitY=0.5;exitDx=0;exitDy=0;entryX=0;entryY=0.5;entryDx=0;entryDy=0;" parent="1" source="n2I34oucoNKnLQGjex-b-21" target="n2I34oucoNKnLQGjex-b-28" edge="1">
          <mxGeometry relative="1" as="geometry" />
        </mxCell>
        <mxCell id="n2I34oucoNKnLQGjex-b-21" value="Realizar compra" style="text;html=1;align=center;verticalAlign=middle;whiteSpace=wrap;rounded=0;" parent="1" vertex="1">
          <mxGeometry x="260" y="210" width="60" height="30" as="geometry" />
        </mxCell>
        <mxCell id="n2I34oucoNKnLQGjex-b-23" value="Fazer denúncias" style="text;html=1;align=center;verticalAlign=middle;whiteSpace=wrap;rounded=0;" parent="1" vertex="1">
          <mxGeometry x="260" y="370" width="60" height="30" as="geometry" />
        </mxCell>
        <mxCell id="n2I34oucoNKnLQGjex-b-26" value="Anunciar produtos" style="text;html=1;align=center;verticalAlign=middle;whiteSpace=wrap;rounded=0;" parent="1" vertex="1">
          <mxGeometry x="260" y="450" width="60" height="30" as="geometry" />
        </mxCell>
        <mxCell id="n2I34oucoNKnLQGjex-b-33" style="edgeStyle=orthogonalEdgeStyle;rounded=0;orthogonalLoop=1;jettySize=auto;html=1;exitX=0.5;exitY=0;exitDx=0;exitDy=0;entryX=0;entryY=0.5;entryDx=0;entryDy=0;" parent="1" source="n2I34oucoNKnLQGjex-b-28" target="n2I34oucoNKnLQGjex-b-31" edge="1">
          <mxGeometry relative="1" as="geometry" />
        </mxCell>
        <mxCell id="n2I34oucoNKnLQGjex-b-34" style="edgeStyle=orthogonalEdgeStyle;rounded=0;orthogonalLoop=1;jettySize=auto;html=1;exitX=0.5;exitY=1;exitDx=0;exitDy=0;entryX=0;entryY=0.5;entryDx=0;entryDy=0;" parent="1" source="n2I34oucoNKnLQGjex-b-28" target="n2I34oucoNKnLQGjex-b-30" edge="1">
          <mxGeometry relative="1" as="geometry" />
        </mxCell>
        <mxCell id="n2I34oucoNKnLQGjex-b-28" value="Realizar pagamento" style="text;html=1;align=center;verticalAlign=middle;whiteSpace=wrap;rounded=0;" parent="1" vertex="1">
          <mxGeometry x="410" y="210" width="60" height="30" as="geometry" />
        </mxCell>
        <mxCell id="n2I34oucoNKnLQGjex-b-30" value="Cartão de crédito" style="text;html=1;align=center;verticalAlign=middle;whiteSpace=wrap;rounded=0;" parent="1" vertex="1">
          <mxGeometry x="490" y="250" width="60" height="30" as="geometry" />
        </mxCell>
        <mxCell id="n2I34oucoNKnLQGjex-b-31" value="Boleto" style="text;html=1;align=center;verticalAlign=middle;whiteSpace=wrap;rounded=0;" parent="1" vertex="1">
          <mxGeometry x="490" y="170" width="60" height="30" as="geometry" />
        </mxCell>
        <mxCell id="n2I34oucoNKnLQGjex-b-45" style="edgeStyle=orthogonalEdgeStyle;rounded=0;orthogonalLoop=1;jettySize=auto;html=1;exitX=0.5;exitY=0;exitDx=0;exitDy=0;exitPerimeter=0;" parent="1" source="n2I34oucoNKnLQGjex-b-41" target="n2I34oucoNKnLQGjex-b-42" edge="1">
          <mxGeometry relative="1" as="geometry" />
        </mxCell>
        <mxCell id="n2I34oucoNKnLQGjex-b-41" value="Agendador de tarefas" style="shape=umlActor;verticalLabelPosition=bottom;verticalAlign=top;html=1;outlineConnect=0;" parent="1" vertex="1">
          <mxGeometry x="400" y="560" width="30" height="60" as="geometry" />
        </mxCell>
        <mxCell id="n2I34oucoNKnLQGjex-b-42" value="Emitir relatório gerencial" style="text;html=1;align=center;verticalAlign=middle;whiteSpace=wrap;rounded=0;" parent="1" vertex="1">
          <mxGeometry x="385" y="470" width="60" height="40" as="geometry" />
        </mxCell>
        <mxCell id="n2I34oucoNKnLQGjex-b-46" value="Liberar entrega" style="text;html=1;align=center;verticalAlign=middle;whiteSpace=wrap;rounded=0;" parent="1" vertex="1">
          <mxGeometry x="430" y="360" width="60" height="30" as="geometry" />
        </mxCell>
        <mxCell id="n2I34oucoNKnLQGjex-b-47" value="&lt;div&gt;confirmar pagamento de boleto&lt;/div&gt;&lt;div&gt;&lt;br&gt;&lt;/div&gt;" style="text;html=1;align=center;verticalAlign=middle;whiteSpace=wrap;rounded=0;" parent="1" vertex="1">
          <mxGeometry x="540" y="370" width="60" height="30" as="geometry" />
        </mxCell>
        <mxCell id="n2I34oucoNKnLQGjex-b-48" value="" style="endArrow=classic;html=1;rounded=0;entryX=0.255;entryY=1.367;entryDx=0;entryDy=0;entryPerimeter=0;" parent="1" target="n2I34oucoNKnLQGjex-b-30" edge="1">
          <mxGeometry width="50" height="50" relative="1" as="geometry">
            <mxPoint x="460" y="360" as="sourcePoint" />
            <mxPoint x="510" y="310" as="targetPoint" />
          </mxGeometry>
        </mxCell>
        <mxCell id="n2I34oucoNKnLQGjex-b-50" value="" style="endArrow=classic;html=1;rounded=0;" parent="1" edge="1">
          <mxGeometry width="50" height="50" relative="1" as="geometry">
            <mxPoint x="530" y="374.29" as="sourcePoint" />
            <mxPoint x="490" y="374.29" as="targetPoint" />
          </mxGeometry>
        </mxCell>
        <mxCell id="n2I34oucoNKnLQGjex-b-51" value="&lt;div&gt;Banco&lt;/div&gt;&lt;div&gt;&lt;br&gt;&lt;/div&gt;" style="shape=umlActor;verticalLabelPosition=bottom;verticalAlign=top;html=1;outlineConnect=0;" parent="1" vertex="1">
          <mxGeometry x="680" y="345" width="30" height="60" as="geometry" />
        </mxCell>
        <mxCell id="n2I34oucoNKnLQGjex-b-53" value="" style="endArrow=classic;html=1;rounded=0;" parent="1" edge="1">
          <mxGeometry width="50" height="50" relative="1" as="geometry">
            <mxPoint x="680" y="374" as="sourcePoint" />
            <mxPoint x="610" y="374.29" as="targetPoint" />
          </mxGeometry>
        </mxCell>
        <mxCell id="n2I34oucoNKnLQGjex-b-54" value="Operadora de cartão" style="shape=umlActor;verticalLabelPosition=bottom;verticalAlign=top;html=1;outlineConnect=0;" parent="1" vertex="1">
          <mxGeometry x="630" y="235" width="30" height="60" as="geometry" />
        </mxCell>
        <mxCell id="n2I34oucoNKnLQGjex-b-55" value="" style="endArrow=classic;html=1;rounded=0;" parent="1" edge="1">
          <mxGeometry width="50" height="50" relative="1" as="geometry">
            <mxPoint x="625" y="264.29" as="sourcePoint" />
            <mxPoint x="555" y="264.58000000000004" as="targetPoint" />
          </mxGeometry>
        </mxCell>
      </root>
    </mxGraphModel>
  </diagram>
</mxfile>
